<?xml version="1.0" standalone="no"?>
<!DOCTYPE svg PUBLIC "-//W3C//DTD SVG 20010904//EN"
 "http://www.w3.org/TR/2001/REC-SVG-20010904/DTD/svg10.dtd">
<svg version="1.0" xmlns="http://www.w3.org/2000/svg"
 width="700.000000pt" height="700.000000pt" viewBox="0 0 700.000000 700.000000"
 preserveAspectRatio="xMidYMid meet">
<metadata>
Created by potrace 1.14, written by Peter Selinger 2001-2017
</metadata>
<g transform="translate(0.000000,700.000000) scale(0.100000,-0.100000)"
fill="#000000" stroke="none">
<path d="M2196 5166 c-10 -227 -23 -383 -56 -676 -53 -461 -62 -572 -64 -790
-1 -195 1 -225 23 -320 13 -58 25 -118 25 -135 1 -28 -3 -31 -49 -43 -27 -7
-95 -16 -150 -19 -112 -6 -150 5 -181 53 -24 35 -14 198 15 257 11 22 18 43
16 45 -2 3 -38 -29 -80 -70 -91 -92 -137 -180 -143 -275 -5 -79 10 -123 58
-167 61 -55 128 -70 279 -63 134 6 248 27 419 77 159 46 152 34 103 187 -65
203 -74 276 -68 498 3 108 21 332 41 518 20 180 41 416 46 525 6 108 13 203
15 210 6 18 49 15 198 -12 544 -100 1222 -100 1807 -1 85 14 164 28 175 31 40
9 44 -5 55 -201 5 -105 19 -269 30 -365 11 -96 20 -181 20 -189 0 -9 8 -11 28
-6 31 7 193 107 213 131 10 12 7 61 -15 257 -31 286 -46 477 -46 605 0 76 -3
92 -15 92 -9 0 -89 -13 -178 -29 -180 -33 -416 -63 -637 -83 -228 -20 -941
-17 -1155 5 -255 27 -523 69 -706 111 -15 3 -17 -16 -23 -158z"/>
<path d="M5086 4724 c-38 -7 -71 -16 -74 -19 -3 -3 24 -5 61 -5 155 0 237 -45
237 -131 0 -69 -35 -125 -149 -239 -93 -93 -203 -182 -353 -286 l-45 -32 4
-253 c5 -230 3 -263 -16 -355 -56 -270 -204 -579 -404 -844 -95 -126 -280
-309 -397 -393 -102 -73 -286 -169 -361 -188 -47 -13 -47 -12 -170 48 -307
151 -583 416 -803 770 -84 135 -79 133 -184 99 -48 -16 -98 -34 -110 -40 l-24
-12 49 -95 c229 -439 635 -849 1028 -1039 143 -70 179 -78 246 -56 139 44 354
168 509 293 176 142 402 403 545 628 88 139 220 415 269 565 77 233 90 311 91
569 l1 223 64 56 c188 161 330 332 365 440 44 135 -39 270 -186 301 -63 14
-106 13 -193 -5z"/>
<path d="M3408 4619 c-162 -19 -352 -82 -486 -161 -91 -54 -193 -161 -236
-248 -49 -100 -40 -120 49 -110 61 7 137 74 180 160 18 37 49 80 68 97 59 51
204 97 289 91 41 -3 43 -4 46 -39 4 -49 -41 -359 -83 -564 -59 -290 -174 -678
-292 -980 -29 -76 -53 -148 -51 -160 4 -30 74 -33 130 -4 90 45 112 77 184
271 164 442 276 875 334 1298 26 182 31 190 117 190 159 0 373 -45 462 -97 67
-39 127 -99 153 -151 18 -38 23 -63 22 -127 -1 -99 -26 -173 -90 -268 -118
-173 -283 -260 -549 -291 -127 -14 -201 -41 -251 -91 -59 -59 -15 -90 115 -80
349 27 766 269 930 539 70 117 86 170 86 291 0 100 -2 115 -28 167 -70 143
-255 238 -521 267 -111 13 -467 12 -578 0z"/>
</g>
</svg>
