<?xml version="1.0" encoding="UTF-8" standalone="no"?>
<!-- Created with Inkscape (http://www.inkscape.org/) -->

<svg
   version="1.1"
   id="svg1"
   width="48"
   height="48"
   viewBox="0 0 48 48"
   xmlns="http://www.w3.org/2000/svg"
   xmlns:svg="http://www.w3.org/2000/svg">
  <defs
     id="defs1" />
  <g
     id="g1">
    <path
       style="fill:#000000"
       d="m 3,38 v -7 h 7 7 v 7 7 H 10 3 Z m 12,0 V 33 H 10 5 v 5 5 h 5 5 z m 8,0 v -7 h 7 7 v 7 7 h -7 -7 z m 12,0 v -5 h -5 -5 v 5 5 h 5 5 z M 3,18 v -7 h 7 7 v 7 7 H 10 3 Z m 12,0 V 13 H 10 5 v 5 5 h 5 5 z m 8,-4 V 3 H 34 45 V 14 25 H 34 23 Z m 20,0 V 5 h -9 -9 v 9 9 h 9 9 z"
       id="path1" />
  </g>
</svg>
