<?xml version="1.0" encoding="UTF-8" standalone="no"?>
<!-- Created with Inkscape (http://www.inkscape.org/) -->

<svg
   version="1.1"
   id="svg1"
   width="48"
   height="48"
   viewBox="0 0 48 48"
   xmlns="http://www.w3.org/2000/svg"
   xmlns:svg="http://www.w3.org/2000/svg">
  <defs
     id="defs1" />
  <g
     id="g1">
    <path
       style="fill:#050505"
       d="M 23,44.618715 V 41.23743 L 27.44282,40.118715 31.88564,39 H 35 38.11436 L 42.55718,40.118715 47,41.23743 V 44.618715 48 H 46.066422 45.132845 L 44.816422,45.25 44.5,42.5 39.75,41.5824 35,40.664801 30.25,41.5824 25.5,42.5 25.183578,45.25 24.867155,48 H 23.933578 23 Z M 3,26 V 7 h 4 4 V 4.5 2 h 1 1 V 4.5 7 H 24 35 V 4.5 2 h 1 1 V 4.5 7 h 4 4 v 7 7 H 44 43 V 19 17 H 24 5 v 13 13 h 6.5 6.5 v 1 1 H 10.5 3 Z M 43,12 V 9 H 24 5 v 3 3 H 24 43 Z M 31,33 29,31 v -2 -2 l 2,-2 2,-2 h 2 l 2,0 2,2 2,2 v 2 2 l -2,2 -2,2 h -2 -2 z m 6.960131,-1.451961 1.20502,-1.45196 L 38.832576,28.405223 38.5,26.714367 36.75,25.612298 35,24.51023 l -1.75,1.102068 -1.75,1.102069 -0.332576,1.690856 -0.332575,1.690856 1.20502,1.45196 L 33.244889,33 H 35 36.755111 Z"
       id="path1" />
  </g>
</svg>
