<?xml version="1.0" encoding="UTF-8" standalone="no"?>
<!-- Created with Inkscape (http://www.inkscape.org/) -->

<svg
   version="1.1"
   id="svg1"
   width="48"
   height="48"
   viewBox="0 0 48 48"
   xmlns="http://www.w3.org/2000/svg"
   xmlns:svg="http://www.w3.org/2000/svg">
  <defs
     id="defs1" />
  <g
     id="g1">
    <g
       id="g2">
      <path
         style="fill:#cbcaff"
         d="M 0,28 V 12 h 22 22 v 5.154988 5.154987 L 41.895012,20.404988 39.790025,18.5 H 34.91774 30.045455 L 27.272727,21.277149 24.5,24.054298 l 0.107364,5.869098 0.107365,5.869098 -3.107365,0.885295 L 18.5,37.563084 18.186642,40.781542 17.873283,44 H 8.9366415 0 Z"
         id="path3" />
      <path
         style="fill:#4b4999"
         d="M 22.189635,44.25 22.5,40.5 l 5,-1.297463 5,-1.297463 5.189029,0.549033 5.189029,0.549032 2.560971,0.97368 L 48,40.950498 V 44.475249 48 H 34.939635 21.879269 Z M 30.454545,33.545455 28,31.090909 V 29 26.909091 L 30.454545,24.454545 32.909091,22 35,22 37.090909,22 39.545455,24.454545 42,26.909091 V 29 31.090909 L 39.545455,33.545455 37.090909,36 H 35 32.909091 Z M 0,8 V 4 H 4 8 V 2 0 h 2 2 V 2 4 H 22 32 V 2 0 h 2 2 v 2 2 h 4 4 v 4 4 H 22 0 Z"
         id="path2" />
    </g>
  </g>
</svg>
