<?xml version="1.0" encoding="UTF-8" standalone="no"?>
<!-- Created with Inkscape (http://www.inkscape.org/) -->

<svg
   version="1.1"
   id="svg1"
   width="48"
   height="48"
   viewBox="0 0 48 48"
   xmlns="http://www.w3.org/2000/svg"
   xmlns:svg="http://www.w3.org/2000/svg">
  <defs
     id="defs1" />
  <g
     id="g1">
    <path
       style="fill:#151515"
       d="m 3,37 v -9 h 1 1 v 9 9 H 4 3 Z M 16,33 V 20 h 1 1 v 13 13 h -1 -1 z m 14,6 v -7 h 1 1 v 7 7 H 31 30 Z M 43,35 V 24 h 1 1 V 35 46 H 44 43 Z M 3,18.224972 v -0.775027 l 7.498054,-7.448012 7.498055,-7.4480128 6.510475,6.4526054 6.510475,6.4526054 5.229566,-5.229565 L 41.47619,5 37.738095,5 34,5 V 4 3 H 39.5 45 V 8.5 14 H 44 43 V 10.281303 6.562607 l -6.001219,5.9386 -6.00122,5.938599 L 24.497738,11.997758 17.997914,5.5557091 11.223861,12.277855 4.4498077,19 H 3.7249038 3 Z"
       id="path1" />
  </g>
</svg>
