<?xml version="1.0" encoding="UTF-8" standalone="no"?>
<!-- Created with Inkscape (http://www.inkscape.org/) -->

<svg
   version="1.1"
   id="svg1"
   width="48"
   height="48"
   viewBox="0 0 48 48"
   xmlns="http://www.w3.org/2000/svg"
   xmlns:svg="http://www.w3.org/2000/svg">
  <defs
     id="defs1" />
  <g
     id="g1">
    <g
       id="g2">
      <path
         style="fill:#cbcaff"
         d="m 2,37 v -9 h 4 4 v 9 9 H 6 2 Z M 14,33 V 20 h 4 4 v 13 13 h -4 -4 z m 12,6 v -7 h 4 4 v 7 7 H 30 26 Z M 38,35 V 24 h 4 4 V 35 46 H 42 38 Z M 41.872445,12.25 40.5,10.5 l 1.706195,1.33609 1.706195,1.33609 1.198314,-0.740599 1.198313,-0.740598 -0.713525,1.154509 L 44.881966,14 H 44.063428 43.244889 Z M 34.964826,5.4576184 33.684763,3.9152367 34.989086,2.7076184 36.293409,1.5 35.560614,2.7938049 34.82782,4.0876098 36.036355,5.5438049 37.244889,7 h -0.5 -0.5 z"
         id="path3" />
      <path
         style="fill:#4b4999"
         d="M 2.9455857,18.434435 1.646282,16.86887 9.8124371,8.7027144 17.978592,0.53655922 24.494146,6.9941985 31.009701,13.451838 34.176423,10.285115 37.343146,7.1183922 36.085483,5.603001 34.82782,4.0876098 35.472927,3.0438049 36.118034,2 H 41.059017 46 v 4.940983 4.940983 l -1.043805,0.645107 -1.043805,0.645107 -1.505765,-1.249674 -1.505764,-1.249674 -4.954835,4.880331 -4.954835,4.88033 L 24.495596,13.995635 18,7.5577766 11.723095,13.778888 5.4461894,20 h -0.60065 -0.60065 z"
         id="path2" />
    </g>
  </g>
</svg>
