<?xml version="1.0" encoding="UTF-8" standalone="no"?>
<!-- Created with Inkscape (http://www.inkscape.org/) -->

<svg
   version="1.1"
   id="svg1"
   width="48"
   height="48"
   viewBox="0 0 48 48"
   xmlns="http://www.w3.org/2000/svg"
   xmlns:svg="http://www.w3.org/2000/svg">
  <defs
     id="defs1" />
  <g
     id="g1">
    <path
       style="fill:#0c0c0c"
       d="M 12,46 V 45 H 16.5 21 V 42 39 H 11 1 V 24 9 h 8 8 v 1 1 H 10 3 V 24 37 H 22 41 V 33.5 30 h 1 1 V 34.5 39 H 33 23 v 3 3 h 4.5 4.5 v 1 1 H 22 12 Z M 27.227138,19.905772 27.725936,16.50724 25.289372,13.31274 22.852808,10.11824 26.436756,9.4458868 30.020705,8.773534 31.72596,5.886767 33.431215,3 H 34 34.568785 l 1.705255,2.886767 1.705255,2.886767 3.583949,0.6723528 3.583948,0.6723532 -2.436564,3.1945 -2.436564,3.1945 0.498798,3.398532 0.498799,3.398532 -2.38583,-0.781978 L 36.5,21.740348 H 34 31.5 l -2.385831,0.781978 -2.38583,0.781978 z M 38.233125,17.439181 37.839174,15.378363 39.419587,14.066737 41,12.755111 V 11.877555 11 H 39.056704 37.113408 L 35.556704,8.7774938 34,6.5549875 32.443296,8.7774938 30.886592,11 28.943296,11 H 27 v 0.877555 0.877556 l 1.580413,1.311626 1.580413,1.311626 -0.393951,2.060818 L 29.372925,19.5 H 34 38.627075 Z"
       id="path1" />
  </g>
</svg>
