<?xml version="1.0" encoding="UTF-8" standalone="no"?>
<!-- Created with Inkscape (http://www.inkscape.org/) -->

<svg
   version="1.1"
   id="svg1"
   width="48"
   height="48"
   viewBox="0 0 48 48"
   xmlns="http://www.w3.org/2000/svg"
   xmlns:svg="http://www.w3.org/2000/svg">
  <defs
     id="defs1" />
  <g
     id="g1">
    <path
       style="fill:#000000"
       d="M 12,46 V 45 H 16.5 21 V 42 39 H 11 1 V 24 9 h 11 11 v 1 1 H 13 3 V 24 37 H 22 41 V 33.5 30 h 1 1 V 34.5 39 H 33 23 v 3 3 h 4.5 4.5 v 1 1 H 22 12 Z M 29,12.5 V 1 h 9 9 V 12.5 24 h -9 -9 z m 16,0 V 3 h -7 -7 v 9.5 9.5 h 7 7 z M 36,16 v -1 h 2 2 v 1 1 h -2 -2 z"
       id="path1" />
  </g>
</svg>
