<?xml version="1.0" encoding="UTF-8" standalone="no"?>
<!-- Created with Inkscape (http://www.inkscape.org/) -->

<svg
   version="1.1"
   id="svg1"
   width="48"
   height="48"
   viewBox="0 0 48 48"
   xmlns="http://www.w3.org/2000/svg"
   xmlns:svg="http://www.w3.org/2000/svg">
  <defs
     id="defs1" />
  <g
     id="g1">
    <g
       id="g2">
      <path
         style="fill:#cbcaff"
         d="M 0,24 V 8 h 6.87264 6.87264 l 4.253532,4.614538 4.253533,4.614537 -0.492653,6.885463 L 21.26704,31 h 0.74205 0.742049 l 5.574527,-2.46532 5.574526,-2.46532 5.049904,2.098645 L 44,30.266651 V 35.133325 40 H 22 0 Z"
         id="path3" />
      <path
         style="fill:#4b4999"
         d="m 12,46 v -2 h 3 3 v -2 -2 h 4 4 v 2 2 h 3 3 v 2 2 H 22 12 Z m 14.401477,-25.10924 0.646775,-4.044704 -2.530813,-3.0077 -2.530813,-3.0077 0.495642,-0.801965 L 22.97791,9.226726 26.340932,8.5958191 29.703955,7.9649123 31.579381,4.4824561 33.454808,1 34,1 l 0.545192,0 1.875427,3.4824561 1.875426,3.4824562 3.363023,0.6309068 3.363022,0.6309069 0.495642,0.801965 0.495642,0.801965 -2.530813,3.0077 -2.530813,3.0077 0.646775,4.044704 0.646774,4.044705 L 38.122648,23.316042 34,21.69662 l -4.122648,1.619422 -4.122649,1.619423 z"
         id="path2" />
    </g>
  </g>
</svg>
