<?xml version="1.0" encoding="UTF-8" standalone="no"?>
<!-- Created with Inkscape (http://www.inkscape.org/) -->

<svg
   version="1.1"
   id="svg1"
   width="48"
   height="48"
   viewBox="0 0 48 48"
   xmlns="http://www.w3.org/2000/svg"
   xmlns:svg="http://www.w3.org/2000/svg">
  <defs
     id="defs1" />
  <g
     id="g1">
    <path
       style="fill:#040404"
       d="m 4,46 v -1 h 12 12 v 1 1 H 16 4 Z m 28,0 v -1 h 6 6 v 1 1 H 38 32 Z M 4,38 v -1 h 4 4 v 1 1 H 8 4 Z m 12,0 v -1 h 14 14 v 1 1 H 30 16 Z M 4,30 v -1 h 10 10 v 1 1 H 14 4 Z m 24,0 v -1 h 8 8 v 1 1 H 36 28 Z M 4,22 V 21 H 8.3871534 12.774307 L 13.170439,13.989442 13.566571,6.9788838 16.306013,4.2394419 19.045455,1.5 H 24 28.954545 l 2.739442,2.7394419 2.739442,2.7394419 0.396132,7.0105582 L 35.225693,21 H 39.612847 44 v 1 1 H 32 20 V 22 21 H 26.5 33 V 14.923077 8.8461538 L 30.076923,5.9230769 27.153846,3 H 24 20.846154 L 17.812152,6.0340022 14.778149,9.0680045 15.171763,16.034002 15.565378,23 H 9.7826888 4 Z"
       id="path1" />
  </g>
</svg>
