<?xml version="1.0" encoding="UTF-8" standalone="no"?>
<!-- Created with Inkscape (http://www.inkscape.org/) -->

<svg
   version="1.1"
   id="svg1"
   width="48"
   height="48"
   viewBox="0 0 48 48"
   xmlns="http://www.w3.org/2000/svg"
   xmlns:svg="http://www.w3.org/2000/svg">
  <defs
     id="defs1" />
  <g
     id="g1">
    <g
       id="g2">
      <path
         style="fill:#cbcaff"
         d="m 4,46 v -2 h 12 12 v 2 2 H 16 4 Z m 28,0 v -2 h 6 6 v 2 2 H 38 32 Z M 4,38 v -2 h 4 4 v 2 2 H 8 4 Z m 12,0 v -2 h 14 14 v 2 2 H 30 16 Z M 4,30 v -2 h 10 10 v 2 2 H 14 4 Z m 24,0 v -2 h 8 8 v 2 2 H 36 28 Z M 4,22 V 20 H 7.4477404 10.895481 L 11.262758,14.75 11.630035,9.5 11.815018,14.75 12,20 h 2 2 l 0.136182,-4.75 0.136182,-4.75 0.453885,2.406556 0.453884,2.406557 -0.651339,4.343443 L 15.877454,24 H 9.9387271 4 Z m 16,0 v -2 h 5.445209 5.445209 l 0.374543,-4.75 0.374543,-4.75 0.180248,4.75 L 32,20 h 1.94774 1.947741 L 36.262758,14.75 36.630035,9.5 36.815018,14.75 37,20 h 3.5 3.5 v 2 2 H 32 20 Z"
         id="path3" />
      <path
         style="fill:#4b4999"
         d="M 12,13.9 V 7.8 L 15.341055,4.4589446 18.682111,1.1178892 21.341055,0.45053655 24,-0.21681606 26.658945,0.45053655 29.317889,1.1178892 32.658945,4.4589446 36,7.8 36,13.9 36,20 H 34.12383 32.24766 L 31.777781,14.333871 31.307901,8.6677416 29.043167,6.8338708 26.778432,5 24,5 21.221568,5 18.956833,6.8338708 16.692099,8.6677416 16.222219,14.333871 15.75234,20 H 13.87617 12 Z"
         id="path2" />
    </g>
  </g>
</svg>
