<?xml version="1.0" encoding="UTF-8" standalone="no"?>
<!-- Created with Inkscape (http://www.inkscape.org/) -->

<svg
   version="1.1"
   id="svg1"
   width="48"
   height="48"
   viewBox="0 0 48 48"
   xmlns="http://www.w3.org/2000/svg"
   xmlns:svg="http://www.w3.org/2000/svg">
  <defs
     id="defs1" />
  <g
     id="g1">
    <path
       style="fill:#191919"
       d="m 31.5,46.105817 -2,-0.869758 -2,-2.223017 -2,-2.223017 V 35.91774 31.045455 L 28.272727,28.272727 31.045455,25.5 H 36 40.954545 L 43.727273,28.272727 46.5,31.045455 V 36 40.954545 l -2.597418,2.597419 -2.597419,2.597418 -3.902581,0.413096 L 33.5,46.975574 Z M 42.076923,42.076923 45,39.153846 V 36 32.846154 L 42.076923,29.923077 39.153846,27 36,27 H 32.846154 L 29.923077,29.923077 27,32.846154 V 36 39.153846 L 29.923077,42.076923 32.846154,45 H 36 39.153846 Z M 35,34 v -3 h 1 1 v 2 2 h 2 2 v 1 1 H 38 35 Z M 11.934204,32.25 15.770097,25.5 8.9306317,25 2.0911662,24.5 9.6488532,12.75 17.20654,1 26.188439,1 35.170337,1 31.585169,5.883977 28,10.767954 28,11.383977 28,12 h 5.708208 5.708208 l -4.447612,4.531787 -4.447613,4.531787 -0.367756,-1.103269 -0.367756,-1.103268 2.281474,-2.428519 L 34.348628,14 29.174314,14 24,14 V 13.383977 L 24,12.767954 27.585169,7.883977 31.170337,3 24.783011,3 18.395685,3 12.447843,12.187408 6.5,21.374816 6.1666667,22.187408 5.8333333,23 H 12.416667 19 v 0.403934 0.403933 l -3.525495,6.237238 -3.525495,6.237238 0.540475,0.540476 0.540476,0.540475 L 16.5,34 l 3.470039,-3.363294 0.696628,0.696627 0.696627,0.696628 L 17.98548,35.51498 14.607666,39 H 11.352989 8.0983113 Z"
       id="path1" />
  </g>
</svg>
