<?xml version="1.0" encoding="UTF-8" standalone="no"?>
<!-- Created with Inkscape (http://www.inkscape.org/) -->

<svg
   version="1.1"
   id="svg1"
   width="48"
   height="48"
   viewBox="0 0 48 48"
   xmlns="http://www.w3.org/2000/svg"
   xmlns:svg="http://www.w3.org/2000/svg">
  <defs
     id="defs1" />
  <g
     id="g1">
    <g
       id="g2">
      <path
         style="fill:#cbcaff"
         d="M 5,39.610891 V 39.221782 L 9.0142015,32.360891 13.028403,25.5 7.0142015,25.202283 1,24.904565 1,24.275519 1,23.646473 8.1722204,12.225764 15.344441,0.80505608 16.501363,0.36110321 17.658286,-0.08284966 26.290823,0.20857517 34.923359,0.5 30.96168,5.6903023 27,10.880605 v 0.507438 l 0,0.507438 4.922438,0.302259 L 36.844875,12.5 24.685665,26.25 12.526454,40 H 8.7632269 5 Z M 34,34.5 V 31 h 2 2 v 1.5 1.5 h 1.5 1.5 v 2 2 H 37.5 34 Z"
         id="path3" />
      <path
         style="fill:#4b4999"
         d="M 31.269695,46.556396 28.039389,45.11311 26.023433,41.806555 24.007476,38.5 24.003738,35.897883 24,33.295766 26.282599,29.897883 28.565198,26.5 32.616223,25.088155 36.667247,23.676311 40.583623,25.588155 44.5,27.5 l 1.911845,3.916377 1.911844,3.916376 -1.411844,3.993034 L 45.5,43.318821 43,45.147863 l -2.5,1.829043 -3,0.511388 -3,0.511388 z M 41,36 V 34 H 39.5 38 V 32.5 31 h -2 -2 v 3.5 3.5 h 3.5 3.5 z"
         id="path2" />
    </g>
  </g>
</svg>
