<?xml version="1.0" encoding="UTF-8" standalone="no"?>
<!-- Created with Inkscape (http://www.inkscape.org/) -->

<svg
   version="1.1"
   id="svg1"
   width="48"
   height="48"
   viewBox="0 0 48 48"
   xmlns="http://www.w3.org/2000/svg"
   xmlns:svg="http://www.w3.org/2000/svg">
  <defs
     id="defs1" />
  <g
     id="g1">
    <path
       style="fill:#1d1d1d"
       d="M 4,43.187091 V 42.374182 L 6.8193325,39.67309 9.6386651,36.971998 10.333333,37.666667 11.028002,38.361335 8.3269096,41.180667 5.6258176,44 H 4.8129088 4 Z M 20,37.666667 V 31 H 13.5 7 L 7,30.441992 7,29.883985 17.25,16.691992 27.5,3.5 l 0.294672,6.705328 0.294671,6.705329 6.396363,0.294671 L 40.88207,17.5 30.854192,30.5 20.826314,43.5 20.413157,43.916667 20,44.333333 Z M 30.25,27.850975 36,20.36196 V 19.68098 19 H 31.054791 L 26.109582,19 25.804791,14.25 25.5,9.5 18.12639,19 10.752781,28.5 16.37639,28.799904 22,29.099808 22.031803,33.799904 22.063607,38.5 23.281803,36.919995 24.5,35.339989 Z m 9.42309,13.329692 -2.701092,-2.819332 0.694669,-0.694668 0.694668,-0.694669 2.819332,2.701092 L 44,42.374182 V 43.187091 44 H 43.187091 42.374182 Z M 5.6730904,7.1806675 2.9719984,4.3613349 3.6666667,3.6666667 4.3613349,2.9719984 7.1806675,5.6730904 10,8.3741824 V 9.1870912 10 H 9.1870912 8.3741824 Z M 38,9.1870912 V 8.3741824 l 2.819333,-2.701092 2.819332,-2.701092 0.694668,0.6946683 0.694669,0.6946682 L 42.32691,7.1806675 39.625818,10 H 38.812909 38 Z"
       id="path1" />
  </g>
</svg>
