<?xml version="1.0" encoding="UTF-8" standalone="no"?>
<!-- Created with Inkscape (http://www.inkscape.org/) -->

<svg
   version="1.1"
   id="svg1"
   width="48"
   height="48"
   viewBox="0 0 48 48"
   xmlns="http://www.w3.org/2000/svg"
   xmlns:svg="http://www.w3.org/2000/svg">
  <defs
     id="defs1" />
  <g
     id="g1">
    <g
       id="g2">
      <path
         style="fill:#cbcaff"
         d="M 19,39.635751 V 32 H 12 5 L 5,31.468585 5,30.93717 16.75,15.754639 28.5,0.57210775 l 0.291291,7.67096995 0.29129,7.6709703 6.913577,0.292976 6.913576,0.292976 -6.176947,8 -6.176948,8 L 24.77792,39.885751 19,47.271502 Z M 8,42.5 10.348628,40 h 0.5 0.5 L 9,42.5 6.6513719,45 h -0.5 -0.5 z M 38.924314,42.25 36.5,39.5 39.25,41.924314 42,44.348628 V 44.674314 45 H 41.674314 41.348628 Z M 5,39.5 7.3486281,37 h 0.5 0.5 L 6,39.5 3.6513719,42 h -0.5 -0.5 z M 41.924314,39.25 39.5,36.5 42.25,38.924314 45,41.348628 V 41.674314 42 h -0.325686 -0.325686 z m -37,-31 L 2.5,5.5 5.25,7.924314 8,10.348628 V 10.674314 11 H 7.674314 7.3486281 Z M 42,8.5 44.348628,6 h 0.5 0.5 L 43,8.5 40.651372,11 h -0.5 -0.5 z M 7.924314,5.25 5.5,2.5 8.25,4.924314 11,7.3486281 V 7.674314 8 H 10.674314 10.348628 Z M 39,5.5 41.348628,3 h 0.5 0.5 L 40,5.5 37.651372,8 h -0.5 -0.5 z"
         id="path3" />
      <path
         style="fill:#4b4999"
         d="m 4.1729934,43.708444 -1.1364196,-1.369302 2.8270067,-2.708444 2.8270066,-2.708444 1.1364195,1.369302 1.1364194,1.369302 -2.8270065,2.708444 -2.8270066,2.708444 z m 35.4577046,-1.572024 -2.708444,-2.827007 1.369302,-1.13642 1.369302,-1.136419 2.708444,2.827006 2.708444,2.827007 -1.369302,1.13642 -1.369302,1.136419 z M 5.6306982,8.1364195 2.922254,5.3094129 4.2915558,4.1729934 5.6608575,3.0365738 8.3693018,5.8635805 11.077746,8.6905871 9.7084442,9.8270066 8.3391425,10.963426 Z M 38.172993,9.7084442 37.036574,8.3391425 39.86358,5.6306982 42.690587,2.922254 l 1.13642,1.3693018 1.136419,1.3693017 -2.827006,2.7084443 -2.827007,2.7084442 z"
         id="path2" />
    </g>
  </g>
</svg>
