<?xml version="1.0" encoding="UTF-8" standalone="no"?>
<!-- Created with Inkscape (http://www.inkscape.org/) -->

<svg
   version="1.1"
   id="svg1"
   width="48"
   height="48"
   viewBox="0 0 48 48"
   xmlns="http://www.w3.org/2000/svg"
   xmlns:svg="http://www.w3.org/2000/svg">
  <defs
     id="defs1" />
  <g
     id="g1">
    <path
       style="fill:#1e1e1e"
       d="M 11.5,44.035793 9.5,43.19836 7.1362006,40.954204 4.7724011,38.710049 2.9081626,34.605025 1.043924,30.5 1.021962,26.61602 1,22.732039 2.1414305,18.922284 3.2828609,15.112528 6.320567,11.427264 9.3582731,7.7420001 14.429137,5.380769 19.5,3.0195378 l 4,-0.00419 4,-0.00419 3.820779,1.0609699 3.820778,1.0609699 4.001638,3.6152396 4.001638,3.6152397 1.927584,3.778375 L 47,19.920324 v 3.317332 3.317332 L 45.484595,28.718531 43.96919,30.882074 39.234595,31.495633 34.5,32.109192 32.017878,32.631907 29.535757,33.154622 23.847329,39.077311 18.158901,45 15.829451,44.936614 13.5,44.873227 Z M 21.875137,37.901547 26.5,32.803095 l 2,-1.091432 2,-1.091431 6.482928,-1.080049 6.482929,-1.080049 0.941347,-2.676705 0.941347,-2.676705 L 44.198405,19.267881 43.04826,15.429037 39.834917,12.142353 36.621575,8.855669 33.828021,7.4110663 31.034468,5.9664636 26.756887,5.3801559 22.479306,4.7938482 18.150892,5.9593689 13.822479,7.1248896 9.6019696,11.345399 5.3814603,15.565908 4.0714602,20.244769 2.7614601,24.92363 l 0.6453554,4.303538 0.6453554,4.303538 1.8652113,2.84335 1.8652113,2.843351 2.8587035,1.884707 2.858703,1.884708 1.875137,0.0066 L 17.250274,43 Z M 23.174314,22.685549 21,20.371098 V 17.859863 15.348628 L 23.314451,13.174314 25.628902,11 l 2.511235,0 2.511235,0 2.174314,2.314451 L 35,15.628902 v 2.511235 2.511235 L 32.685549,22.825686 30.371098,25 H 27.859863 25.348628 Z M 31.171259,21.345012 33,19.690025 V 18.173753 16.657481 L 31.345012,14.828741 29.690025,13 28.173753,13 H 26.657481 L 24.828741,14.654988 23,16.309975 v 1.516272 1.516272 l 1.654988,1.82874 L 26.309975,23 h 1.516272 1.516272 z"
       id="path1" />
  </g>
</svg>
