<?xml version="1.0" encoding="UTF-8" standalone="no"?>
<!-- Created with Inkscape (http://www.inkscape.org/) -->

<svg
   version="1.1"
   id="svg1"
   width="48"
   height="48"
   viewBox="0 0 48 48"
   xmlns="http://www.w3.org/2000/svg"
   xmlns:svg="http://www.w3.org/2000/svg">
  <defs
     id="defs1" />
  <g
     id="g1">
    <g
       id="g2">
      <path
         style="fill:#cbcaff"
         d="M 11.020563,44.883964 8.541126,43.8947 6.6288284,42.19735 4.7165307,40.5 2.3680343,35.5 0.01953783,30.5 0.00976892,26.61602 0,22.732039 1.1605578,18.858443 2.3211155,14.984846 5.7680042,10.957932 9.2148929,6.9310176 13.357446,4.7452081 17.5,2.5593986 24.57842,2.5296993 31.65684,2.5 l 4.895144,3.0264355 4.895145,3.0264356 2.894572,4.6818609 2.894572,4.68186 0.479387,4.291704 0.479387,4.291704 -2.058165,2.607693 -2.058164,2.607692 -5.644517,0.663403 -5.644516,0.663402 -2.144842,1.092336 L 28.5,35.226863 23.440098,40.613431 18.380196,46 15.940098,45.936614 13.5,45.873227 Z M 33.545455,23.545455 36,21.090909 V 18 14.909091 L 33.545455,12.454545 31.090909,10 28,10 24.909091,10 22.454545,12.454545 20,14.909091 V 18 21.090909 L 22.454545,23.545455 24.909091,26 H 28 31.090909 Z"
         id="path3" />
      <path
         style="fill:#4b4999"
         d="M 22.454545,23.545455 20,21.090909 V 18 14.909091 L 22.454545,12.454545 24.909091,10 28,10 31.090909,10 33.545455,12.454545 36,14.909091 V 18 21.090909 L 33.545455,23.545455 31.090909,26 H 28 24.909091 Z"
         id="path2" />
    </g>
  </g>
</svg>
