<?xml version="1.0" encoding="UTF-8" standalone="no"?>
<!-- Created with Inkscape (http://www.inkscape.org/) -->

<svg
   version="1.1"
   id="svg1"
   width="48"
   height="48"
   viewBox="0 0 48 48"
   xmlns="http://www.w3.org/2000/svg"
   xmlns:svg="http://www.w3.org/2000/svg">
  <defs
     id="defs1" />
  <g
     id="g1">
    <path
       style="fill:#161616"
       d="M 0,44 V 43 H 11.198396 22.396793 L 30.948396,40.412238 39.5,37.824476 40.457143,36.905095 41.414286,35.985714 39.717923,34.289352 38.021561,32.592989 30.531864,34.796495 23.042168,37 H 18.021084 13 V 36 35 H 17.5 22 V 33.038544 31.077088 L 18.25,30.099599 14.5,29.12211 10.710006,28.442261 6.9200126,27.762412 4.9600063,29.536194 3,31.309975 3,32.654988 3,34 H 2 1 L 1,32.454545 1,30.909091 3.4545455,28.454545 5.9090909,26 7.8318801,26 9.7546692,26 16.877335,27.608502 24,29.217004 24,31.608502 V 34 h 1.374273 1.374274 L 31,32.5 35.251453,31 37.125727,31 39,31 l 2,2 2,2 0,1.922347 0,1.922348 -9.906304,3.077652 L 23.187392,45 H 11.593696 0 Z M 28.334283,19.310971 28.977346,15.289474 26.988673,13.489749 25,11.690025 V 10.924468 10.158911 L 27.988968,9.502423 30.977936,8.8459355 32.704576,5.9229678 34.431215,3 H 35 35.568785 l 1.726639,2.9229678 1.72664,2.9229677 L 42.011032,9.502423 45,10.158911 v 0.765557 0.765557 l -1.988673,1.799724 -1.988673,1.799725 0.643063,4.021497 0.643063,4.021497 -1.90439,-0.866296 -1.90439,-0.866297 -3.5,0 h -3.5 l -1.90439,0.866297 -1.90439,0.866296 z M 35,18.710897 h 1.5 l 1.746098,0.750043 1.746099,0.750043 L 39.395354,17.226772 38.798512,14.24256 39.899256,13.562263 41,12.881966 V 11.940983 11 H 39.556704 38.113408 L 36.556704,8.7774938 35,6.5549875 33.443296,8.7774938 31.886592,11 30.443296,11 H 29 v 0.940983 0.940983 l 1.100744,0.680297 1.100744,0.680297 -0.596842,2.984212 -0.596843,2.984211 L 31.753902,19.46094 33.5,18.710897 Z"
       id="path1" />
  </g>
</svg>
