<?xml version="1.0" encoding="UTF-8" standalone="no"?>
<!-- Created with Inkscape (http://www.inkscape.org/) -->

<svg
   version="1.1"
   id="svg1"
   width="48"
   height="48"
   viewBox="0 0 48 48"
   xmlns="http://www.w3.org/2000/svg"
   xmlns:svg="http://www.w3.org/2000/svg">
  <defs
     id="defs1" />
  <g
     id="g1">
    <g
       id="g2">
      <path
         style="fill:#cbcaff"
         d="M 0,39.047053 0,32.094106 1.1297195,29.614642 2.259439,27.135178 5.1395981,25.942177 8.0197572,24.749176 16.509879,26.530879 25,28.312583 V 31.156291 34 h -6.073324 -6.073324 l 0.331951,1.75 0.331951,1.75 4.203015,0.305624 4.203015,0.305623 8.23747,-2.602216 8.237471,-2.602215 2.550887,1.90257 L 43.5,36.711957 43.782834,38.14573 44.065668,39.579503 33.57732,42.789751 23.088973,46 H 11.544486 0 Z M 24.437091,12.75 21.5,9.5 24.75,12.437091 28,15.374182 V 15.687091 16 H 27.687091 27.374182 Z M 42,15.687091 V 15.374182 L 45.25,12.437091 48.5,9.5 45.562909,12.75 42.625818,16 H 42.312909 42 Z"
         id="path3" />
      <path
         style="fill:#4b4999"
         d="M 27.221533,20.409415 28.20061,15.818829 25.480936,12.980101 22.761262,10.141374 26.72073,9.0751995 30.680198,8.0090255 32.567503,4.5045127 34.454808,1 35,1 l 0.545192,0 1.887305,3.5045127 1.887305,3.5045128 3.959468,1.066174 3.959468,1.0661745 -2.719674,2.838727 -2.719674,2.838728 0.979077,4.590586 L 43.757543,25 h -0.418609 -0.41861 L 38.960162,22.979676 35,20.959352 31.039838,22.979676 27.079676,25 h -0.41861 -0.418609 z"
         id="path2" />
    </g>
  </g>
</svg>
