<?xml version="1.0" encoding="UTF-8" standalone="no"?>
<!-- Created with Inkscape (http://www.inkscape.org/) -->

<svg
   version="1.1"
   id="svg1"
   width="48"
   height="48"
   viewBox="0 0 48 48"
   xmlns="http://www.w3.org/2000/svg"
   xmlns:svg="http://www.w3.org/2000/svg">
  <defs
     id="defs1" />
  <g
     id="g1">
    <path
       style="fill:#0a0a0a"
       d="M 4,46 V 45 H 6.5 9 V 39.163756 33.327512 L 15.4762,28.913756 21.9524,24.5 l 0,-0.5 0,-0.5 L 15.4762,19.086244 9,14.672488 9,8.836244 V 3 H 6.5 4 V 2 1 H 24 44 V 2 3 H 41.5 39 v 5.836244 5.836244 L 32.5238,19.086244 26.0476,23.5 V 24 l 0,0.5 6.4762,4.413756 6.4762,4.413756 0,5.836244 V 45 h 2.5 2.5 v 1 1 H 24 4 Z M 37,39.696859 37,34.393717 31.04886,30.196859 25.097719,26 H 24 L 22.902281,26 16.95114,30.196859 11,34.393717 V 39.696859 45 H 24 37 Z M 31.04886,17.803141 37,13.606283 V 8.3031415 3 H 24 11 v 5.2994166 l 0,5.2994164 5.75,4.146675 5.75,4.146674 1.29886,0.05391 L 25.097719,22 Z"
       id="path1" />
  </g>
</svg>
