<?xml version="1.0" encoding="UTF-8" standalone="no"?>
<!-- Created with Inkscape (http://www.inkscape.org/) -->

<svg
   version="1.1"
   id="svg1"
   width="48"
   height="48"
   viewBox="0 0 48 48"
   xmlns="http://www.w3.org/2000/svg"
   xmlns:svg="http://www.w3.org/2000/svg">
  <defs
     id="defs1" />
  <g
     id="g1">
    <g
       id="g2">
      <path
         style="fill:#cbcaff"
         d="M 0,24 V 4 h 19 19 v 16 16 h 2 2 v -9 -9 h 3 3 V 31 44 H 24 0 Z m 29,8 V 30 H 19 9 v 2 2 H 19 29 Z M 30,18 V 12 H 19 8 v 6 6 h 11 11 z"
         id="path3" />
      <path
         style="fill:#4b4999"
         d="m 38,27 v -9 h 2 2 v 9 9 H 40 38 Z M 9,32 v -2 h 10 10 v 2 2 H 19 9 Z M 8,18 v -6 h 11 11 v 6 6 H 19 8 Z"
         id="path2" />
    </g>
  </g>
</svg>
