<?xml version="1.0" encoding="UTF-8" standalone="no"?>
<!-- Created with Inkscape (http://www.inkscape.org/) -->

<svg
   version="1.1"
   id="svg1"
   width="48"
   height="48"
   viewBox="0 0 48 48"
   xmlns="http://www.w3.org/2000/svg"
   xmlns:svg="http://www.w3.org/2000/svg">
  <defs
     id="defs1" />
  <g
     id="g1">
    <path
       style="fill:#0c0c0c"
       d="M 3,36 V 27 H 5.5 8 V 22.304719 17.609438 L 5.4496602,14.947457 2.8993203,12.285475 4.0683751,7.6427377 5.23743,3 9,3 12.76257,3 13.931625,7.6427377 15.10068,12.285475 12.55034,14.947457 10,17.609438 10,22.304719 V 27 h 2.5 2.5 v 9 9 H 9 3 Z m 10,0 V 29 H 9 5 v 7 7 h 4 4 z M 11.313611,13.205958 12.937196,11.411916 12.146651,8.4559579 11.356106,5.5 H 9 6.6438935 L 5.8533485,8.4559579 5.0628035,11.411916 6.6863893,13.205958 8.3099751,15 H 9 9.6900249 Z M 26,36.154988 V 27.309975 L 23.897621,25.407348 21.795242,23.504721 20.397621,20.80202 19,18.09932 19,15.450789 19,12.802258 20.516158,9.6071917 22.032317,6.4121251 24.92045,4.7060625 27.808584,3 28.404292,3 29,3 V 7.3775553 11.755111 L 30.5,13 32,14.244889 33.5,13 35,11.755111 V 7.3775553 3 l 0.595708,0 0.595708,0 2.888134,1.7060625 2.888133,1.7060626 1.516159,3.1950666 L 45,12.802258 v 2.648531 2.648531 l -1.397621,2.7027 -1.397621,2.702701 -2.102379,1.902627 L 38,27.309975 38,36.154988 V 45 H 32 26 Z M 36,34.43544 v -8.56456 l 2.965996,-2.495721 2.965995,-2.495721 0.648422,-3.456384 0.648422,-3.456385 L 41.977267,10.945118 40.725699,7.9235663 38.86285,6.9265994 37,5.9296325 V 9.2905022 12.651372 L 34.5,15 32,17.348628 29.5,15 27,12.651372 27,9.2905022 V 5.9296325 l -1.86285,0.9969669 -1.862849,0.9969669 -1.251568,3.0215517 -1.251568,3.021551 0.648422,3.456385 0.648422,3.456384 2.965995,2.495721 L 28,25.87088 V 34.43544 43 h 4 4 z"
       id="path1" />
  </g>
</svg>
