<?xml version="1.0" encoding="UTF-8" standalone="no"?>
<!-- Created with Inkscape (http://www.inkscape.org/) -->

<svg
   version="1.1"
   id="svg1"
   width="48"
   height="48"
   viewBox="0 0 48 48"
   xmlns="http://www.w3.org/2000/svg"
   xmlns:svg="http://www.w3.org/2000/svg">
  <defs
     id="defs1" />
  <g
     id="g1">
    <g
       id="g2">
      <path
         style="fill:#cbcaff"
         d="m 25,36.923077 v -9.076923 l -2.961986,-2.961987 -2.961987,-2.961986 -0.667401,-3.557552 -0.6674,-3.557552 1.161655,-3.877259 L 20.064536,7.0525584 23.376659,4.5262792 26.688782,2 27.344391,2 28,2 V 7.9648162 13.929632 L 30,15 32,16.070368 34,15 36,13.929632 V 7.9648162 2 l 0.655609,0 0.655609,0 3.312123,2.5262792 3.312123,2.5262792 1.161655,3.8772596 1.161655,3.877259 -0.6674,3.557552 -0.667401,3.557552 -2.961987,2.961986 L 39,27.846154 V 36.923077 46 H 32 25 Z M 7,21.804719 V 17.609438 L 4.4778663,14.976897 1.9557326,12.344357 3.1496145,7.1721785 4.3434965,2 9,2 l 4.656504,0 1.193881,5.1721785 1.193882,5.1721785 -2.522133,2.63254 L 11,17.609438 V 21.804719 26 H 9 7 Z"
         id="path3" />
      <path
         style="fill:#4b4999"
         d="M 2,36 V 26 h 7 7 V 36 46 H 9 2 Z"
         id="path2" />
    </g>
  </g>
</svg>
