<?xml version="1.0" encoding="UTF-8" standalone="no"?>
<!-- Created with Inkscape (http://www.inkscape.org/) -->

<svg
   version="1.1"
   id="svg1"
   width="48"
   height="48"
   viewBox="0 0 48 48"
   xmlns="http://www.w3.org/2000/svg"
   xmlns:svg="http://www.w3.org/2000/svg">
  <defs
     id="defs1" />
  <g
     id="g1">
    <path
       style="fill:#0a0a0a"
       d="M 1,24 V 1 H 14.78416 28.56832 L 33.78416,6.2814453 39,11.562891 V 14.281445 17 H 38 37 V 14.712408 L 37,12.424816 32.215651,7.7124082 27.431302,3 15.215651,3 3,3 V 24 45 H 9.5 16 v 1 1 H 8.5 1 Z m 20,18.22654 v -4.77346 l 8.005166,-7.958216 8.005167,-7.958216 4.726509,4.72651 4.72651,4.726509 -7.958216,8.005167 L 30.54692,47 H 25.77346 21 Z M 36.50378,37.996191 43.453921,30.992382 40.230769,27.769231 37.007618,24.546079 30.003809,31.49622 23,38.446361 V 41.72318 45 h 3.27682 3.276819 z m -24.490141,-5.481673 -2.3548584,-2.506632 0.6464434,-0.646444 0.646444,-0.646443 1.632379,1.354753 1.632378,1.354754 1.460254,-1.962253 1.460254,-1.962253 0.85653,-1.49167 0.856531,-1.491669 0.71239,0.712389 0.712389,0.712389 -2.953138,4.539856 -2.953138,4.539855 z m -0.519187,-14.520649 -1.8155237,-2.006131 0.6363697,-0.636369 0.63637,-0.63637 1.632379,1.354753 1.632378,1.354754 1.460254,-1.962253 1.460254,-1.962253 0.85653,-1.49167 0.856531,-1.491669 0.721342,0.721341 0.721341,0.721342 L 17.63215,15.979672 14.971623,20 h -0.830824 -0.830824 z"
       id="path1" />
  </g>
</svg>
