<?xml version="1.0" encoding="UTF-8" standalone="no"?>
<!-- Created with Inkscape (http://www.inkscape.org/) -->

<svg
   version="1.1"
   id="svg1"
   width="48"
   height="48"
   viewBox="0 0 48 48"
   xmlns="http://www.w3.org/2000/svg"
   xmlns:svg="http://www.w3.org/2000/svg">
  <defs
     id="defs1" />
  <g
     id="g1">
    <g
       id="g2">
      <path
         style="fill:#cbcaff"
         d="M 0,24 V 0 L 14.281303,0 28.562607,0 34.281303,5.7789974 40,11.557995 40,14.478997 40,17.4 38.783191,16.183191 37.566382,14.966382 26.783191,25.716137 16,36.465892 16,42.232946 16,48 H 8 0 Z M 13.89094,31.502334 17.120919,27.004668 16.501443,26.002334 15.881966,25 H 14.834903 13.78784 L 11.791734,27.537638 9.7956279,30.075276 8.5304926,29.025307 7.2653574,27.975338 5.9859047,29.516984 4.706452,31.05863 7.02754,33.529315 9.3486281,36 h 0.6561659 0.656166 z m 0,-14 3.229979,-4.497666 L 16.501443,12.002334 15.881966,11 H 14.555993 13.23002 L 11.548108,13.566921 9.8661969,16.133843 8.5657771,15.05459 7.2653574,13.975338 5.9859047,15.516984 4.706452,17.05863 7.02754,19.529315 9.3486281,22 H 10.004794 10.66096 Z M 38.5,39 47.458301,30 h 0.5 0.5 L 39.5,39 30.541699,48 h -0.5 -0.5 z M 28,29.5 36.455844,21 h 0.5 0.5 L 29,29.5 20.544156,38 h -0.5 -0.5 z"
         id="path3" />
      <path
         style="fill:#4b4999"
         d="m 20,43.229151 v -4.77085 l 8.75,-8.689824 8.75,-8.689824 5,4.394427 5,4.394427 -8.979151,9.066246 L 29.541699,48 H 24.770849 20 Z M 7.02754,33.529315 4.706452,31.05863 5.9859047,29.516984 7.2653574,27.975338 8.5304926,29.025307 9.7956279,30.075276 11.791734,27.537638 13.78784,25 h 1.047063 1.047063 l 0.619477,1.002334 0.619476,1.002334 L 13.89094,31.502334 10.66096,36 H 10.004794 9.3486281 Z m 0,-14 L 4.706452,17.05863 5.9859047,15.516984 7.2653574,13.975338 8.5657771,15.05459 9.8661969,16.133843 11.548108,13.566921 13.23002,11 h 1.325973 1.325973 l 0.619477,1.002334 0.619476,1.002334 L 13.89094,17.502334 10.66096,22 H 10.004794 9.3486281 Z"
         id="path2" />
    </g>
  </g>
</svg>
