<?xml version="1.0" encoding="UTF-8" standalone="no"?>
<!-- Created with Inkscape (http://www.inkscape.org/) -->

<svg
   version="1.1"
   id="svg1"
   width="48"
   height="48"
   viewBox="0 0 48 48"
   xmlns="http://www.w3.org/2000/svg"
   xmlns:svg="http://www.w3.org/2000/svg">
  <defs
     id="defs1" />
  <g
     id="g1">
    <path
       style="fill:#121212"
       d="M 13,41.459507 V 35.919015 L 10.75,32.875727 8.5,29.832439 V 24 18.167561 L 10.75,15.124273 13,12.080985 V 6.5404925 1 h 11 11 v 5.5404925 5.5404925 l 2.25,3.043288 2.25,3.043288 V 24 29.832439 L 37.25,32.875727 35,35.919015 V 41.459507 47 H 24 13 Z m 20,-0.0269 V 37.865225 L 30.75,38.682612 28.5,39.5 H 24 19.5 L 17.25,38.682612 15,37.865225 V 41.432612 45 h 9 9 z M 31.913425,35.252152 34.5,33.35783 36.302363,29.928915 38.104726,26.5 37.625599,22.586575 37.146473,18.67315 35.252152,16.086575 33.35783,13.5 29.928915,11.697637 26.5,9.8952744 22.586575,10.374401 18.67315,10.853527 16.086575,12.747848 13.5,14.64217 11.697637,18.071085 9.8952744,21.5 10.374401,25.413425 10.853527,29.32685 12.747848,31.913425 14.64217,34.5 18.071085,36.302363 21.5,38.104726 25.413425,37.625599 29.32685,37.146473 Z M 24,8.5 h 4.5 L 30.75,9.3173877 33,10.134775 V 6.5673877 3 H 24 15 V 6.5673877 10.134775 L 17.25,9.3173877 19.5,8.5 Z"
       id="path1" />
  </g>
</svg>
