<?xml version="1.0" encoding="UTF-8" standalone="no"?>
<!-- Created with Inkscape (http://www.inkscape.org/) -->

<svg
   version="1.1"
   id="svg1"
   width="48"
   height="48"
   viewBox="0 0 48 48"
   xmlns="http://www.w3.org/2000/svg"
   xmlns:svg="http://www.w3.org/2000/svg">
  <defs
     id="defs1" />
  <g
     id="g1">
    <g
       id="g2">
      <path
         style="fill:#cbcaff"
         d="M 17.481407,39.606432 14.462815,38.291147 11.280731,34.666954 8.0986483,31.042762 7.4380332,27.521381 6.7774182,24 7.4748705,20.28226 8.1723228,16.564519 12.368421,12.368421 16.564519,8.1723228 20.28226,7.4748705 24,6.7774182 l 3.71774,0.6974523 3.717741,0.6974523 4.196098,4.1960982 4.196098,4.196098 0.697453,3.717741 0.697452,3.71774 -0.660615,3.521381 -0.660615,3.521381 -3.185053,3.627574 -3.185053,3.627575 -3.233504,1.351045 L 27.064237,41 23.782119,40.960858 20.5,40.921716 Z"
         id="path3" />
      <path
         style="fill:#4b4999"
         d="M 12,41.970063 V 35.940125 L 15.08378,38.220063 18.167561,40.5 H 24 29.832439 L 32.91622,38.220063 36,35.940125 V 41.970063 48 H 24 12 Z M 12,6.0299374 V 0 H 24 36 V 6.0299374 L 36,12.059875 32.91622,9.7799374 29.832439,7.5 H 24 18.167561 L 15.08378,9.7799374 12,12.059875 Z"
         id="path2" />
    </g>
  </g>
</svg>
