<?xml version="1.0" encoding="UTF-8" standalone="no"?>
<!-- Created with Inkscape (http://www.inkscape.org/) -->

<svg
   width="256"
   height="256"
   id="svg2180"
   sodipodi:version="0.32"
   inkscape:version="1.1.2 (0a00cf5339, 2022-02-04)"
   version="1.0"
   sodipodi:docname="favicon.svg"
   inkscape:output_extension="org.inkscape.output.svg.inkscape"
   inkscape:export-filename="/home/kore/devel/kportal/trunk/doc/favicon.png"
   inkscape:export-xdpi="90"
   inkscape:export-ydpi="90"
   viewBox="0 0 239.99999 239.99999"
   xmlns:inkscape="http://www.inkscape.org/namespaces/inkscape"
   xmlns:sodipodi="http://sodipodi.sourceforge.net/DTD/sodipodi-0.dtd"
   xmlns:xlink="http://www.w3.org/1999/xlink"
   xmlns="http://www.w3.org/2000/svg"
   xmlns:svg="http://www.w3.org/2000/svg"
   xmlns:rdf="http://www.w3.org/1999/02/22-rdf-syntax-ns#"
   xmlns:cc="http://creativecommons.org/ns#"
   xmlns:dc="http://purl.org/dc/elements/1.1/">
  <defs
     id="defs2182">
    <linearGradient
       inkscape:collect="always"
       id="linearGradient1888">
      <stop
         style="stop-color:#bdbdd8;stop-opacity:1"
         offset="0"
         id="stop1884" />
      <stop
         style="stop-color:#f3f3fa;stop-opacity:1"
         offset="1"
         id="stop1886" />
    </linearGradient>
    <radialGradient
       inkscape:collect="always"
       xlink:href="#linearGradient1888"
       id="radialGradient1892"
       cx="109.42016"
       cy="153.64502"
       fx="109.42016"
       fy="153.64502"
       r="119.99999"
       gradientUnits="userSpaceOnUse" />
    <linearGradient
       inkscape:collect="always"
       xlink:href="#linearGradient61555"
       id="linearGradient61557"
       x1="37.16909"
       y1="74.859741"
       x2="97.18586"
       y2="29.128487"
       gradientUnits="userSpaceOnUse"
       gradientTransform="matrix(1.4009614,0,0,1.4009614,22.539382,30.158563)" />
    <linearGradient
       inkscape:collect="always"
       id="linearGradient61555">
      <stop
         style="stop-color:#4b4999;stop-opacity:1"
         offset="0"
         id="stop61551" />
      <stop
         style="stop-color:#12939f;stop-opacity:1"
         offset="1"
         id="stop61553" />
    </linearGradient>
    <linearGradient
       inkscape:collect="always"
       xlink:href="#linearGradient71482"
       id="linearGradient71484"
       x1="100.92298"
       y1="57.743164"
       x2="45.272957"
       y2="89.655052"
       gradientUnits="userSpaceOnUse"
       gradientTransform="matrix(1.4009614,0,0,1.4009614,22.539382,30.158563)" />
    <linearGradient
       inkscape:collect="always"
       id="linearGradient71482">
      <stop
         style="stop-color:#4b4999;stop-opacity:1"
         offset="0"
         id="stop71478" />
      <stop
         style="stop-color:#7d7aff;stop-opacity:1"
         offset="1"
         id="stop71480" />
    </linearGradient>
    <filter
       inkscape:collect="always"
       style="color-interpolation-filters:sRGB"
       id="filter1068"
       x="-0.016804299"
       y="-0.017918064"
       width="1.0336086"
       height="1.0358361">
      <feGaussianBlur
         inkscape:collect="always"
         stdDeviation="1.0049752"
         id="feGaussianBlur1070" />
    </filter>
  </defs>
  <sodipodi:namedview
     id="base"
     pagecolor="#ffffff"
     bordercolor="#666666"
     borderopacity="1.0"
     gridtolerance="10000"
     guidetolerance="10"
     objecttolerance="10"
     inkscape:pageopacity="0.0"
     inkscape:pageshadow="2"
     inkscape:zoom="2.8284271"
     inkscape:cx="155.74027"
     inkscape:cy="127.456"
     inkscape:document-units="px"
     inkscape:current-layer="layer1"
     width="16px"
     height="16px"
     inkscape:window-width="2560"
     inkscape:window-height="1440"
     inkscape:window-x="4480"
     inkscape:window-y="-37"
     inkscape:pagecheckerboard="0"
     showgrid="false"
     inkscape:window-maximized="1" />
  <metadata
     id="metadata2185">
    <rdf:RDF>
      <cc:Work
         rdf:about="">
        <dc:format>image/svg+xml</dc:format>
        <dc:type
           rdf:resource="http://purl.org/dc/dcmitype/StillImage" />
      </cc:Work>
    </rdf:RDF>
  </metadata>
  <g
     inkscape:label="Layer 1"
     inkscape:groupmode="layer"
     id="layer1">
    <rect
       style="fill:url(#radialGradient1892);fill-opacity:1;stroke:none;stroke-width:6.5625;stroke-linecap:round;stroke-linejoin:round;paint-order:markers fill stroke"
       id="rect845"
       width="239.99998"
       height="239.99998"
       x="-4.1084288e-08"
       y="-4.5020225e-16"
       ry="31.057373"
       rx="31.057373" />
    <path
       id="path1030"
       style="opacity:0.74407;mix-blend-mode:normal;fill:#000000;fill-opacity:1;fill-rule:evenodd;stroke:none;stroke-width:0.692377px;stroke-linecap:butt;stroke-linejoin:miter;stroke-opacity:1;filter:url(#filter1068)"
       d="m 79.914062,60.695312 v 0.002 c 0.371307,22.56591 -4.53125,40.690658 -4.53125,62.285158 0,4.36872 0.924367,9.48183 2.636719,14.9375 -2.133685,0.56258 -4.113089,0.99762 -5.873047,1.25196 -6.214155,0.89796 -9.927734,-0.23449 -9.927734,-4.1543 0,-3.70068 0.34824,-5.84655 2.861328,-9.34375 0,0 -8.845703,5.69965 -8.845703,13.82226 0,8.36792 9.718216,9.09153 24.273437,5.27539 0.01376,-0.004 0.02726,-0.0102 0.04102,-0.0137 1.585611,-0.4164 3.239428,-0.89578 4.933594,-1.41601 0.272011,-0.0836 0.547673,-0.17176 0.822266,-0.25782 0.883232,-0.27688 1.781506,-0.56951 2.689453,-0.87109 -2.831979,-6.75411 -4.382813,-13.19638 -4.382813,-18.38477 0,-17.91441 4.065706,-32.949653 3.757813,-51.669921 24.989225,5.948875 56.643645,5.542262 82.140625,0 -0.17296,10.514987 1.09795,19.644757 2.21093,28.925781 0.34018,-0.20812 0.6818,-0.41642 1.02149,-0.625 2.71386,-1.666325 5.3697,-3.322065 7.88281,-4.9375 -0.0283,-0.22641 -0.0529,-0.453394 -0.0801,-0.679687 -0.36737,-3.043286 -0.73284,-6.087796 -1.08398,-9.146485 -0.91116,-7.93712 -1.64342,-16.047018 -1.4961,-25 -30.74623,6.680822 -68.9168,7.170945 -99.050774,0 z M 189.98242,82.316406 c -2.17687,-0.04192 -4.80544,0.337461 -7.96875,1.314453 5.5678,-0.27984 11.91211,-0.350926 11.91211,5.105469 0,3.160118 -4.20101,8.052114 -11.51758,13.859372 -0.001,-0.0176 -0.004,-0.0353 -0.006,-0.0527 -2.55826,2.03595 -5.53955,4.19286 -8.82031,6.41992 0.44719,4.74446 0.74721,9.63099 0.68555,14.86523 -0.21907,18.64273 -18.7193,52.06919 -44.82813,59.99805 -16.42666,-5.75388 -29.732306,-20.58476 -37.462888,-35.29101 -0.499392,0.17336 -0.997481,0.34651 -1.498046,0.51757 -2.297494,0.78518 -4.60183,1.55679 -6.917969,2.29688 1.43936,2.84488 3.065478,5.68583 4.84375,8.50781 0,0.0245 0.002,0.0477 0.002,0.0723 9.587958,15.19164 23.899573,29.37642 41.031253,35.375 31.48407,-9.55767 53.7939,-49.84983 54.05859,-72.32227 0.0466,-3.95829 -0.0915,-7.73811 -0.32812,-11.42383 10.56718,-8.41278 16.59766,-15.768393 16.59765,-20.669918 0,-2.896203 -2.00858,-8.422516 -9.7832,-8.572266 z m -61.17187,4.138672 c -4.14027,0 -8.51425,0.691665 -13.125,2.072266 -4.61076,1.349084 -8.65709,3.387687 -12.13867,6.117187 -3.48162,2.729494 -5.786883,6.039249 -6.916021,9.929689 0,0.37702 0.219,0.70597 0.658203,0.98828 h 0.611329 c 1.160561,0 2.494489,-0.47046 3.999999,-1.41211 1.50557,-0.94074 2.57192,-1.9444 3.19922,-3.01172 0.59597,-1.913157 1.33272,-3.40338 2.21094,-4.470701 0.90961,-1.098283 2.22606,-1.993297 3.95117,-2.683594 3.32476,-1.223957 6.69638,-1.835938 10.11523,-1.835937 -0.90961,10.196552 -2.6972,20.738332 -5.36328,31.625002 -1.44273,5.52183 -3.05777,10.96524 -4.8457,16.33008 -1.75648,5.36501 -3.71664,10.68245 -5.88086,15.95312 -0.0619,0.12568 -0.0918,0.28311 -0.0918,0.4707 l -0.002,0.008 c 0,0.18397 0.0159,0.29367 0.0469,0.33007 0.0328,0.0547 0.0787,0.10031 0.14063,0.13672 0.0941,0.0601 0.26666,0.15376 0.51758,0.28125 h 0.4707 c 1.4115,-0.15663 2.80745,-0.65892 4.1875,-1.50586 1.38002,-0.81597 2.41536,-1.78871 3.10547,-2.91796 1.97607,-4.73737 3.84318,-9.70977 5.59961,-14.91797 1.75656,-5.20802 3.27659,-10.25798 4.5625,-15.15235 1.31729,-4.89419 2.44764,-9.85122 3.38867,-14.87109 0.97236,-5.0512 1.75559,-10.306625 2.35156,-15.765626 h 4.32813 c 3.29339,0 6.7135,0.422591 10.25781,1.269531 3.54433,0.815609 6.53981,2.274916 8.98633,4.376953 2.47789,2.070713 3.7168,4.783672 3.7168,8.140622 0,2.00806 -0.39366,3.98465 -1.17774,5.92969 -0.7842,1.91334 -1.8176,3.68642 -3.10351,5.31836 -1.25455,1.59916 -2.71449,3.05829 -4.37696,4.37695 -2.41515,1.78895 -5.17409,3.12211 -8.27929,4 -3.07383,0.84694 -6.19536,1.27149 -9.36329,1.27149 -1.16052,0.12567 -2.6825,0.72175 -4.56445,1.78906 -1.85057,1.03472 -2.77539,2.08503 -2.77539,3.15234 0,0.18579 0.0778,0.34321 0.23438,0.47071 0.15659,0.13298 0.29818,0.22663 0.42382,0.28125 h 0.51758 c 4.51665,0 9.00312,-0.73759 13.45703,-2.21289 4.45394,-1.50591 8.70384,-3.59293 12.75,-6.25977 2.72881,-1.88239 5.17366,-3.93653 7.33789,-6.16406 2.16431,-2.25886 3.95387,-4.75292 5.36524,-7.48242 1.41138,-2.76101 2.11719,-5.59994 2.11719,-8.51758 0,-2.886507 -0.76981,-5.318383 -2.30664,-7.294924 -1.53691,-2.007147 -3.52808,-3.607785 -5.97461,-4.800781 -2.44652,-1.191175 -5.05037,-2.038317 -7.81055,-2.541016 -2.7288,-0.53366 -5.45673,-0.800781 -8.18555,-0.800781 z"
       transform="matrix(1.3535758,0,0,1.3544842,-52.594769,-45.211085)" />
    <g
       id="g1028"
       transform="matrix(1.4438142,0,0,1.4447832,-49.200148,-52.921116)"
       style="stroke-width:0.692378">
      <path
         id="path869"
         style="fill:url(#linearGradient61557);fill-opacity:1;fill-rule:evenodd;stroke:none;stroke-width:0.649103px;stroke-linecap:butt;stroke-linejoin:miter;stroke-opacity:1"
         d="m 72.349722,62.020453 v 0.002 c 0.3481,21.15554 -4.24792,38.148247 -4.24792,58.393087 0,4.09567 0.86792,8.88817 2.47325,14.00286 -2.00033,0.52742 -3.8568,0.9353 -5.50676,1.17374 -5.82577,0.84184 -9.30718,-0.21886 -9.30718,-3.89368 0,-3.46939 0.32733,-5.48255 2.68335,-8.76118 0,0 -8.29431,5.34402 -8.29431,12.95897 0,7.84492 9.11088,8.52373 22.7564,4.9461 0.0129,-0.004 0.0264,-0.0104 0.0393,-0.0136 1.48651,-0.39038 3.03712,-0.83978 4.6254,-1.3275 0.25501,-0.0784 0.51291,-0.16022 0.77034,-0.2409 0.82803,-0.25958 1.66988,-0.53393 2.52108,-0.81666 -2.65498,-6.33198 -4.10786,-12.37122 -4.10786,-17.23533 0,-16.79476 3.81065,-30.890837 3.522,-48.441087 23.427398,5.57707 53.104168,5.19587 77.007578,0 -0.16215,9.8578 1.02845,18.41633 2.07187,27.11729 0.31892,-0.19512 0.63976,-0.39047 0.95822,-0.58601 2.54425,-1.56218 5.0347,-3.11385 7.39074,-4.62832 -0.0265,-0.21226 -0.0497,-0.42512 -0.0752,-0.63727 -0.34441,-2.85308 -0.6871,-5.70744 -1.0163,-8.57496 -0.85421,-7.44105 -1.54042,-15.04377 -1.4023,-23.43719 -28.82459,6.26327 -64.61113,6.72276 -92.861728,0 z"
         sodipodi:nodetypes="csscsscsscsscscccsccscc" />
      <path
         id="path5139"
         style="fill:url(#linearGradient71484);fill-opacity:1;fill-rule:evenodd;stroke:none;stroke-width:0.649103px;stroke-linecap:butt;stroke-linejoin:miter;stroke-opacity:1"
         d="m 175.54004,82.290083 c -2.04082,-0.0393 -4.50542,0.3159 -7.47102,1.23183 5.21981,-0.26235 11.16726,-0.32816 11.16726,4.78721 0,2.96261 -3.93734,7.54883 -10.79662,12.993137 -0.001,-0.0165 -0.004,-0.0332 -0.006,-0.0495 -2.39837,1.9087 -5.19297,3.93117 -8.26868,6.01904 0.41924,4.44793 0.70004,9.02913 0.64223,13.93623 -0.20538,17.47755 -17.54922,48.81388 -42.02624,56.24719 -15.4,-5.39426 -27.873568,-19.29797 -35.120988,-33.08508 -0.46818,0.16253 -0.93645,0.32485 -1.40573,0.48522 -2.1539,0.7361 -4.31409,1.45889 -6.48547,2.15272 1.3494,2.66708 2.87458,5.33136 4.54171,7.97697 0,0.023 0.002,0.0453 0.002,0.0683 8.98871,14.24216 22.406118,27.54 38.467068,33.16367 29.51631,-8.96031 50.43148,-46.73386 50.67963,-67.80177 0.0437,-3.7109 -0.0856,-7.25523 -0.30744,-10.71059 9.90673,-7.88698 15.56035,-14.782617 15.56035,-19.377797 0,-2.71519 -1.88353,-7.89639 -9.17223,-8.03678 z" />
      <path
         d="m 96.051002,151.86317 q 0,-0.26381 0.087,-0.44054 3.04344,-7.41188 5.513488,-14.95643 2.51428,-7.5443 4.54312,-15.30938 3.74917,-15.30937 5.02831,-29.648267 -4.80776,0 -9.48321,1.72119 -2.425938,0.97073 -3.705078,2.51519 -1.23499,1.50092 -2.07308,4.1913 -0.88214,1.500917 -2.99934,2.823827 -2.11713,1.32419 -3.74917,1.32419 h -0.57332 q -0.61763,-0.397 -0.61763,-0.92719 1.58785,-5.470927 6.48387,-9.309277 4.89597,-3.83836 11.379838,-5.73551 6.48387,-1.94147 12.30612,-1.94147 h 11.55627 q 3.8374,0 7.67478,0.75046 3.8815,0.70692 7.32191,2.38201 3.44044,1.67765 5.60171,4.5002 2.16117,2.77951 2.16117,6.838657 0,4.10294 -1.98475,7.9856 -1.98474,3.83836 -5.0283,7.01488 -3.04346,3.13246 -6.88084,5.77957 -5.68992,3.75024 -11.95327,5.86792 -6.26332,2.07465 -12.61485,2.07465 h -0.48523 q -0.17669,-0.0768 -0.3969,-0.26381 -0.22021,-0.17929 -0.22021,-0.44055 0,-1.50091 2.60236,-2.95599 2.64649,-1.50091 4.27848,-1.67764 4.4549,0 8.77747,-1.19101 4.36669,-1.23454 7.763,-3.75025 2.33785,-1.85437 4.10205,-4.10319 1.80832,-2.29492 2.9111,-4.98556 1.10261,-2.73521 1.10261,-5.55904 0,-4.720717 -3.48453,-7.632657 -3.44041,-2.95599 -8.42462,-4.10294 -4.98418,-1.19101 -9.61551,-1.19101 h -4.05793 q -0.83809,7.67672 -2.20547,14.779957 -1.32333,7.05919 -3.17577,13.94165 -1.80831,6.88271 -4.27847,14.20648 -2.46998,7.32403 -5.24883,13.98595 -0.97047,1.58801 -2.91112,2.73547 -1.940698,1.191 -3.925618,1.41127 h -0.4412 q -0.35285,-0.17929 -0.48524,-0.26381 -0.0871,-0.0512 -0.13315,-0.12806 -0.0435,-0.0512 -0.0435,-0.30992 z"
         style="font-size:3.52777px;line-height:125%;font-family:cmsy10;-inkscape-font-specification:cmsy10;text-align:center;letter-spacing:0px;word-spacing:0px;text-anchor:middle;fill:#13293b;fill-opacity:1;stroke-width:0.649098px"
         id="path15047" />
    </g>
  </g>
</svg>
